<svg xmlns="http://www.w3.org/2000/svg" viewBox="0 0 1500 935"><svg viewBox="0 0 396 247" data-background-color="#004051" xmlns="http://www.w3.org/2000/svg" xmlns:xlink="http://www.w3.org/1999/xlink" transform="translate(-.91 .379)"><svg viewBox="0 0 395.52 247.2" transform="translate(.24 -.1)"><svg/><svg viewBox="0 0 395.52 247.2"><mask id="a"><path fill="#fff" d="M0 0h395.52v247.2H0z"/><svg viewBox="0 0 395.52 78.618" transform="translate(0 84.291)"><svg viewBox="0 0 395.52 78.618"><svg viewBox="0 0 395.52 78.618"><svg viewBox="0 0 395.52 78.618"><svg viewBox="0 0 395.52 78.618"><svg viewBox="0 0 395.52 78.618"><svg viewBox="-1.7 -39.46 212.58 43.06" data-palette-color="#32fd6b"><path d="M8.95.15q-.5 0-.7-.35-.2-.35-.2-.75.05-.85.4-.95.35-.1.85-.1 1.6 0 2.25-.58.65-.57.83-1.45.17-.87.17-1.82V-29.7H9.1q-1.7.05-2.65.72-.95.68-1.4 2.1-.45 1.43-.8 3.68-.05.45-.62.67-.58.23-1.13.23-.35 0-.77-.25-.43-.25-.43-.75l.15-7.05q0-.7.4-.95t.95-.25h24.45q.55 0 .93.25.37.25.37.95l.2 7.05q0 .5-.42.75-.43.25-.83.25-.5 0-1.05-.23-.55-.22-.65-.67-.35-2.25-.82-3.68-.48-1.42-1.4-2.1-.93-.67-2.68-.72h-3.4v23.85q.05.95.2 1.82.15.88.83 1.45.67.58 2.22.58.5 0 .85.1t.4.95q0 .4-.2.75t-.7.35q-1.6-.1-3.03-.12Q16.65 0 15.2 0q-3 0-6.25.15Zm26.2.45q-3.05 0-4.88-1.75-1.82-1.75-1.82-4.2 0-2.55 1.32-4 1.33-1.45 3.5-2.15 2.18-.7 4.75-.95 2.58-.25 5.03-.4v-3.95q0-2.35-1.18-3.68-1.17-1.32-3.97-1.32-1.4 0-2.63.9-1.22.9-1.22 2.6 0 .8.4 1.35t.8.85q.4.3.4.4 0 .2-.58.72-.57.53-1.57.53-1.55 0-2.4-1.15-.85-1.15-.85-2.55 0-1.9 1.17-3 1.18-1.1 3.03-1.6 1.85-.5 3.75-.5 2.25 0 4.37.55 2.13.55 3.5 2.1 1.38 1.55 1.38 4.65V-4.3q.05.5.25 1.2t.77 1.22q.58.53 1.58.53.35 0 .55.12.2.13.2.68 0 .45-.5.7-.5.25-1.15.35-.65.1-1.1.1-1.85 0-3.3-1.08-1.45-1.07-1.7-2.97-1.1 2-3.28 3.02Q37.6.6 35.15.6Zm1.6-2.7q1.7 0 3.12-.85 1.43-.85 2.3-2.33.88-1.47.88-3.27v-2.85q-5.15.35-7.35 1.65-2.2 1.3-2.2 4.25 0 3.4 3.25 3.4ZM62.7.6q-3.86 0-6.43-1.38-2.57-1.37-2.57-3.97 0-1.45.87-2.35.88-.9 2.27-.9.91 0 1.48.47.58.48.58.68 0 .15-.58.67-.57.53-.57 1.68 0 1.4 1.32 2.32 1.33.93 4.02.93 2.36 0 3.68-1.02 1.32-1.03 1.32-2.88 0-1.5-.97-2.33-.97-.82-2.5-1.32-1.53-.5-3.25-1t-3.28-1.25q-1.54-.75-2.52-2.08-.98-1.32-.98-3.52 0-2.25 1.36-3.7 1.35-1.45 3.45-2.18 2.1-.72 4.25-.72 1.85 0 3.5.52 1.65.53 2.72 1.58 1.08 1.05 1.08 2.65 0 1.25-.8 2.25-.81 1-2.2 1-.9 0-1.48-.48-.57-.47-.57-.67 0-.1.37-.38.38-.27.73-.75.34-.47.34-1.22-.09-1.45-1.39-2.15-1.3-.7-2.9-.7-1.75 0-3.25.85t-1.5 2.45q0 1.45.62 2.25.63.8 2 1.37 1.38.58 3.58 1.28 2.2.7 3.87 1.45 1.68.75 2.6 1.97.93 1.23.93 3.33T70.7-2.9q-1.2 1.65-3.28 2.57Q65.34.6 62.7.6ZM75.89.15q-.4 0-.6-.33-.2-.32-.2-.67.05-.75.38-.83.32-.07.77-.07 1.4 0 1.93-.48.52-.47.6-1.27.07-.8.07-1.65V-29.5q0-.9-.07-1.68-.08-.77-.58-1.25-.5-.47-1.9-.47-.45 0-.82-.12-.38-.13-.38-.88t.8-.9q2.3-.35 3.53-.7 1.22-.35 1.87-.6.65-.25 1.15-.3.4-.05.68.15.27.2.27.8v22.85q2.2-.45 3.6-1.85l4.2-4.3q.3-.35.68-.75.37-.4.45-.75.07-.35-.43-.55-.5-.2-1.9-.1-.55-.1-.6-.9 0-.4.23-.7.22-.3.57-.3 1.15.05 2.78.1 1.62.05 2.72.05.85 0 1.68-.05l1.67-.1q.4 0 .6.3.2.3.2.7-.05.65-.27.77-.23.13-.58.13-1.95 0-3.15.7t-2.7 2.25l-4.2 4.3q.6.8 1.6 1.95t2.13 2.42q1.12 1.28 2.12 2.4 1 1.13 1.6 1.83 1.45 1.55 2.43 2.37.97.83 2.42.93.4.05.75.12.35.08.35.78 0 .35-.17.67-.18.33-.63.33-.7-.05-1.15-.07-.45-.03-1-.05Q98.84 0 97.82 0h-2.93q-1.75-1.9-4.02-4.55-2.28-2.65-4.53-5.25-.5-.55-1.27-1.03-.78-.47-1.68-.37v6.05q0 .85.08 1.65.07.8.6 1.27.52.48 1.87.48.5 0 .83.07.32.08.37.83 0 .35-.2.67-.2.33-.6.33-1.45-.1-2.7-.12Q82.39 0 81.09 0q-1.35 0-2.55.03-1.2.02-2.65.12Zm29.4 0q-.45 0-.65-.35t-.2-.75q.05-.85.4-.95.35-.1.85-.1 1.6 0 2.25-.58.65-.57.83-1.45.17-.87.17-1.82V-25.7q0-.95-.17-1.83-.18-.87-.83-1.45-.65-.57-2.25-.57-.5 0-.85-.1t-.4-.95q0-.4.2-.75t.65-.35q1.6.05 3.03.1 1.42.05 2.92.05h14.45q.55 0 .93.25.37.25.37.95l.15 7q0 .5-.47.75-.48.25-.88.25-.55 0-1.02-.23-.48-.22-.58-.67-.3-2.25-.77-3.63-.48-1.37-1.4-2-.93-.62-2.68-.67h-5.45v13h8.95q.4.05.6.4.2.35.2.75 0 .35-.2.67-.2.33-.6.33h-8.95v8.55q.05.95.2 1.82.15.88.83 1.45.67.58 2.22.58.5 0 .85.1t.4.95q0 .4-.2.75t-.7.35q-3.2-.15-6.2-.15-1.5 0-2.95.03-1.45.02-3.05.12Zm24.55 0q-.35 0-.58-.33-.22-.32-.22-.67.05-.75.37-.83.33-.07.78-.07 1.4 0 1.92-.48.53-.47.6-1.27.08-.8.08-1.65v-24.4q0-.9-.08-1.68-.07-.77-.57-1.25-.5-.47-1.9-.47-.45 0-.83-.13-.37-.12-.37-.87t.8-.9q2.3-.35 3.52-.7 1.23-.35 1.88-.6.65-.25 1.15-.3.4-.05.67.15.28.2.28.8v30.35q0 .85.07 1.65.08.8.6 1.27.53.48 1.93.48.45 0 .77.07.33.08.38.83 0 .35-.2.67-.2.33-.6.33-1.45-.1-2.68-.12-1.22-.03-2.57-.03-1.35 0-2.55.03-1.2.02-2.65.12Zm25.7.45q-3.5 0-6.13-1.65-2.62-1.65-4.07-4.3Q143.89-8 143.89-11q0-2.95 1.05-5.25t2.77-3.85q1.73-1.55 3.78-2.35t4.05-.8q3.5 0 6.12 1.65 2.63 1.65 4.08 4.3 1.45 2.65 1.45 5.65 0 2.95-1.08 5.25-1.07 2.3-2.8 3.85Q161.59-1 159.54-.2t-4 .8Zm0-1.85q2.45 0 3.87-1.45 1.43-1.45 2.05-3.83.63-2.37.63-5.12 0-2.65-.65-4.85-.65-2.2-2.1-3.55-1.45-1.35-3.8-1.35-2.45 0-3.9 1.42-1.45 1.43-2.05 3.75-.6 2.33-.6 5.13 0 2.6.62 4.85.63 2.25 2.08 3.62 1.45 1.38 3.85 1.38ZM182.68.5h-2.95l-6.4-17.75q-.8-1.85-1.55-2.63-.75-.77-2.25-.97-.65-.1-.87-.2-.23-.1-.28-.75-.05-.85.48-.93.52-.07 1.27-.12 3.1-.15 4.85.9 1.75 1.05 2.85 3.55l4.6 12.95h.15q.5-1.6 1.2-4.02.7-2.43 1.43-5.03.72-2.6 1.32-4.83.6-2.22.9-3.32h2.4l6.85 17.2h.15q.7-2.1 1.35-4.63.65-2.52 1.2-4.85.55-2.32.95-3.82.3-1.35-.1-1.75-.4-.4-1.8-.4-.45 0-.75-.08-.3-.07-.35-.82 0-.3.18-.65.17-.35.52-.35 1.45.05 2.53.1 1.07.05 2.37.05t2.03-.05q.72-.05 2.17-.1.4 0 .58.35.17.35.17.65-.05.75-.37.82-.33.08-.73.08-1.8 0-2.82.6-1.03.6-1.48 2.35L196.93.5h-2.95l-6.35-16.35L182.68.5Z" class="wordmark-text-0" stroke-width="5" stroke="#000" stroke-linejoin="round"/></svg></svg></svg></svg></svg></svg></svg></mask><g mask="url(#a)"><path d="M150.387 247.2c-2.599 0-4.419-.91-5.459-2.729a11.597 11.597 0 0 1-1.56-5.849c.26-4.419 1.3-6.888 3.119-7.408 1.82-.52 4.029-.78 6.629-.78 8.318 0 14.167-1.508 17.546-4.523 3.379-2.963 5.537-6.732 6.472-11.307.884-4.523 1.326-9.254 1.326-14.193V14.426h-26.904c-8.838.26-15.726 2.131-20.665 5.615-4.939 3.535-8.578 8.994-10.917 16.376-2.339 7.434-4.419 17-6.239 28.697-.26 2.339-1.872 4.081-4.834 5.225-3.015 1.196-5.953 1.794-8.812 1.793-1.82 0-3.821-.65-6.005-1.949-2.235-1.3-3.353-3.249-3.353-5.849l1.17-54.976c0-3.639 1.04-6.109 3.119-7.408C97.099.65 99.569 0 102.428 0h190.664c2.859 0 5.277.65 7.252 1.95 1.924 1.3 2.885 3.769 2.885 7.408l1.56 54.976c0 2.599-1.092 4.549-3.275 5.849-2.235 1.3-4.393 1.95-6.473 1.949-2.599 0-5.329-.598-8.188-1.793-2.859-1.144-4.549-2.885-5.068-5.225-1.82-11.697-3.951-21.263-6.395-28.697-2.495-7.382-6.135-12.841-10.917-16.376-4.835-3.483-11.801-5.355-20.899-5.615H217.06v185.985c.26 4.939.78 9.67 1.56 14.193.78 4.575 2.937 8.344 6.472 11.307 3.483 3.015 9.254 4.523 17.312 4.523 2.599 0 4.809.26 6.629.78 1.82.52 2.859 2.989 3.119 7.408a11.6 11.6 0 0 1-1.56 5.849c-1.04 1.82-2.859 2.729-5.459 2.729-8.318-.52-16.194-.832-23.628-.936-7.382-.156-14.842-.234-22.38-.234-15.596 0-31.842.39-48.739 1.17z" fill="#32fd6b" font-family="none" font-weight="none" font-size="none" text-anchor="none" style="mix-blend-mode:normal" data-fill-palette-color="tertiary"/></g><svg viewBox="0 0 395.52 78.618" transform="translate(0 84.291)"><svg viewBox="0 0 395.52 78.618"><svg viewBox="0 0 395.52 78.618"><svg viewBox="0 0 395.52 78.618"><svg viewBox="0 0 395.52 78.618"><svg viewBox="0 0 395.52 78.618"><svg viewBox="-1.7 -39.46 212.58 43.06" data-palette-color="#32fd6b"><path d="M8.95.15q-.5 0-.7-.35-.2-.35-.2-.75.05-.85.4-.95.35-.1.85-.1 1.6 0 2.25-.58.65-.57.83-1.45.17-.87.17-1.82V-29.7H9.1q-1.7.05-2.65.72-.95.68-1.4 2.1-.45 1.43-.8 3.68-.05.45-.62.67-.58.23-1.13.23-.35 0-.77-.25-.43-.25-.43-.75l.15-7.05q0-.7.4-.95t.95-.25h24.45q.55 0 .93.25.37.25.37.95l.2 7.05q0 .5-.42.75-.43.25-.83.25-.5 0-1.05-.23-.55-.22-.65-.67-.35-2.25-.82-3.68-.48-1.42-1.4-2.1-.93-.67-2.68-.72h-3.4v23.85q.05.95.2 1.82.15.88.83 1.45.67.58 2.22.58.5 0 .85.1t.4.95q0 .4-.2.75t-.7.35q-1.6-.1-3.03-.12Q16.65 0 15.2 0q-3 0-6.25.15Zm26.2.45q-3.05 0-4.88-1.75-1.82-1.75-1.82-4.2 0-2.55 1.32-4 1.33-1.45 3.5-2.15 2.18-.7 4.75-.95 2.58-.25 5.03-.4v-3.95q0-2.35-1.18-3.68-1.17-1.32-3.97-1.32-1.4 0-2.63.9-1.22.9-1.22 2.6 0 .8.4 1.35t.8.85q.4.3.4.4 0 .2-.58.72-.57.53-1.57.53-1.55 0-2.4-1.15-.85-1.15-.85-2.55 0-1.9 1.17-3 1.18-1.1 3.03-1.6 1.85-.5 3.75-.5 2.25 0 4.37.55 2.13.55 3.5 2.1 1.38 1.55 1.38 4.65V-4.3q.05.5.25 1.2t.77 1.22q.58.53 1.58.53.35 0 .55.12.2.13.2.68 0 .45-.5.7-.5.25-1.15.35-.65.1-1.1.1-1.85 0-3.3-1.08-1.45-1.07-1.7-2.97-1.1 2-3.28 3.02Q37.6.6 35.15.6Zm1.6-2.7q1.7 0 3.12-.85 1.43-.85 2.3-2.33.88-1.47.88-3.27v-2.85q-5.15.35-7.35 1.65-2.2 1.3-2.2 4.25 0 3.4 3.25 3.4ZM62.7.6q-3.86 0-6.43-1.38-2.57-1.37-2.57-3.97 0-1.45.87-2.35.88-.9 2.27-.9.91 0 1.48.47.58.48.58.68 0 .15-.58.67-.57.53-.57 1.68 0 1.4 1.32 2.32 1.33.93 4.02.93 2.36 0 3.68-1.02 1.32-1.03 1.32-2.88 0-1.5-.97-2.33-.97-.82-2.5-1.32-1.53-.5-3.25-1t-3.28-1.25q-1.54-.75-2.52-2.08-.98-1.32-.98-3.52 0-2.25 1.36-3.7 1.35-1.45 3.45-2.18 2.1-.72 4.25-.72 1.85 0 3.5.52 1.65.53 2.72 1.58 1.08 1.05 1.08 2.65 0 1.25-.8 2.25-.81 1-2.2 1-.9 0-1.48-.48-.57-.47-.57-.67 0-.1.37-.38.38-.27.73-.75.34-.47.34-1.22-.09-1.45-1.39-2.15-1.3-.7-2.9-.7-1.75 0-3.25.85t-1.5 2.45q0 1.45.62 2.25.63.8 2 1.37 1.38.58 3.58 1.28 2.2.7 3.87 1.45 1.68.75 2.6 1.97.93 1.23.93 3.33T70.7-2.9q-1.2 1.65-3.28 2.57Q65.34.6 62.7.6ZM75.89.15q-.4 0-.6-.33-.2-.32-.2-.67.05-.75.38-.83.32-.07.77-.07 1.4 0 1.93-.48.52-.47.6-1.27.07-.8.07-1.65V-29.5q0-.9-.07-1.68-.08-.77-.58-1.25-.5-.47-1.9-.47-.45 0-.82-.12-.38-.13-.38-.88t.8-.9q2.3-.35 3.53-.7 1.22-.35 1.87-.6.65-.25 1.15-.3.4-.05.68.15.27.2.27.8v22.85q2.2-.45 3.6-1.85l4.2-4.3q.3-.35.68-.75.37-.4.45-.75.07-.35-.43-.55-.5-.2-1.9-.1-.55-.1-.6-.9 0-.4.23-.7.22-.3.57-.3 1.15.05 2.78.1 1.62.05 2.72.05.85 0 1.68-.05l1.67-.1q.4 0 .6.3.2.3.2.7-.05.65-.27.77-.23.13-.58.13-1.95 0-3.15.7t-2.7 2.25l-4.2 4.3q.6.8 1.6 1.95t2.13 2.42q1.12 1.28 2.12 2.4 1 1.13 1.6 1.83 1.45 1.55 2.43 2.37.97.83 2.42.93.4.05.75.12.35.08.35.78 0 .35-.17.67-.18.33-.63.33-.7-.05-1.15-.07-.45-.03-1-.05Q98.84 0 97.82 0h-2.93q-1.75-1.9-4.02-4.55-2.28-2.65-4.53-5.25-.5-.55-1.27-1.03-.78-.47-1.68-.37v6.05q0 .85.08 1.65.07.8.6 1.27.52.48 1.87.48.5 0 .83.07.32.08.37.83 0 .35-.2.67-.2.33-.6.33-1.45-.1-2.7-.12Q82.39 0 81.09 0q-1.35 0-2.55.03-1.2.02-2.65.12Zm29.4 0q-.45 0-.65-.35t-.2-.75q.05-.85.4-.95.35-.1.85-.1 1.6 0 2.25-.58.65-.57.83-1.45.17-.87.17-1.82V-25.7q0-.95-.17-1.83-.18-.87-.83-1.45-.65-.57-2.25-.57-.5 0-.85-.1t-.4-.95q0-.4.2-.75t.65-.35q1.6.05 3.03.1 1.42.05 2.92.05h14.45q.55 0 .93.25.37.25.37.95l.15 7q0 .5-.47.75-.48.25-.88.25-.55 0-1.02-.23-.48-.22-.58-.67-.3-2.25-.77-3.63-.48-1.37-1.4-2-.93-.62-2.68-.67h-5.45v13h8.95q.4.05.6.4.2.35.2.75 0 .35-.2.67-.2.33-.6.33h-8.95v8.55q.05.95.2 1.82.15.88.83 1.45.67.58 2.22.58.5 0 .85.1t.4.95q0 .4-.2.75t-.7.35q-3.2-.15-6.2-.15-1.5 0-2.95.03-1.45.02-3.05.12Zm24.55 0q-.35 0-.58-.33-.22-.32-.22-.67.05-.75.37-.83.33-.07.78-.07 1.4 0 1.92-.48.53-.47.6-1.27.08-.8.08-1.65v-24.4q0-.9-.08-1.68-.07-.77-.57-1.25-.5-.47-1.9-.47-.45 0-.83-.13-.37-.12-.37-.87t.8-.9q2.3-.35 3.52-.7 1.23-.35 1.88-.6.65-.25 1.15-.3.4-.05.67.15.28.2.28.8v30.35q0 .85.07 1.65.08.8.6 1.27.53.48 1.93.48.45 0 .77.07.33.08.38.83 0 .35-.2.67-.2.33-.6.33-1.45-.1-2.68-.12-1.22-.03-2.57-.03-1.35 0-2.55.03-1.2.02-2.65.12Zm25.7.45q-3.5 0-6.13-1.65-2.62-1.65-4.07-4.3Q143.89-8 143.89-11q0-2.95 1.05-5.25t2.77-3.85q1.73-1.55 3.78-2.35t4.05-.8q3.5 0 6.12 1.65 2.63 1.65 4.08 4.3 1.45 2.65 1.45 5.65 0 2.95-1.08 5.25-1.07 2.3-2.8 3.85Q161.59-1 159.54-.2t-4 .8Zm0-1.85q2.45 0 3.87-1.45 1.43-1.45 2.05-3.83.63-2.37.63-5.12 0-2.65-.65-4.85-.65-2.2-2.1-3.55-1.45-1.35-3.8-1.35-2.45 0-3.9 1.42-1.45 1.43-2.05 3.75-.6 2.33-.6 5.13 0 2.6.62 4.85.63 2.25 2.08 3.62 1.45 1.38 3.85 1.38ZM182.68.5h-2.95l-6.4-17.75q-.8-1.85-1.55-2.63-.75-.77-2.25-.97-.65-.1-.87-.2-.23-.1-.28-.75-.05-.85.48-.93.52-.07 1.27-.12 3.1-.15 4.85.9 1.75 1.05 2.85 3.55l4.6 12.95h.15q.5-1.6 1.2-4.02.7-2.43 1.43-5.03.72-2.6 1.32-4.83.6-2.22.9-3.32h2.4l6.85 17.2h.15q.7-2.1 1.35-4.63.65-2.52 1.2-4.85.55-2.32.95-3.82.3-1.35-.1-1.75-.4-.4-1.8-.4-.45 0-.75-.08-.3-.07-.35-.82 0-.3.18-.65.17-.35.52-.35 1.45.05 2.53.1 1.07.05 2.37.05t2.03-.05q.72-.05 2.17-.1.4 0 .58.35.17.35.17.65-.05.75-.37.82-.33.08-.73.08-1.8 0-2.82.6-1.03.6-1.48 2.35L196.93.5h-2.95l-6.35-16.35L182.68.5Z" fill="#32fd6b" class="wordmark-text-0" data-fill-palette-color="primary"/></svg></svg></svg></svg></svg></svg></svg></svg></svg></svg></svg>